Patient4_TMGait_0pt6_02_left_42_EMG.mot
version=1
nRows=33
nColumns=33
inDegrees=no
endheader
time	1LAddLong	2LGlutMax	3LGlutMed	4LIliopsoas	5LSemiMemb	6LBicFemLong	7LRecFem	8LVastMed	9LVastLat	10LGasMed	11LTibAnt	12lTibPost	13LPeroneusLong	14LSol	15LExtDigLong	16LFlexDigLong	17RAddLong	18RGlutMax	19RGlutMed	20RIliopsoas	21RSemiMemb	22RBicFemLong	23RRecFem	24RVastMed	25RVastLat	26RGasMed	27RTibAnt	28RTibPost	29RPeroneusLong	30RSol	31RExtDigLong	32RFlexDigLong
52.135	0.018005	-0.078735	-0.049133	-0.011292	0.047302	0.083771	-0.10513	0.009766	-0.012817	0.12222	0.006561	-0.022736	0.14893	-0.17395	-0.006561	-0.055237	-0.050354	-0.3186	-0.70847	-0.07019	-0.42908	0.25726	-0.19104	-0.16861	0.20203	0.005646	0.000763	-0.001221	0.16571	0.055237	0.002136	-0.004425
52.136	0.017242	-0.10346	-0.059662	0.018463	0.14633	0.047607	-0.11124	0.007324	0.016479	0.11307	0.004425	0.015717	0.086823	-0.18158	-0.015259	-0.044708	-0.043793	-0.17593	0.17395	-0.088043	-0.37079	0.37872	-0.32242	-0.16983	0.19211	-0.002899	0.014496	0.000916	0.32379	0.056915	0.001831	-0.01709
52.137	0.011597	-0.10407	-0.074158	0.0177	0.11887	-0.011139	-0.071259	0.004425	-0.016785	-0.018311	0.010223	-0.003357	0.074158	-0.27023	-0.028381	-0.046082	-0.025635	-0.17059	0.97534	-0.056152	0.55328	0.20248	-0.30899	-0.10635	0.18341	0.005188	-0.001831	0.005341	0.59616	0.023193	0.00351	-0.010681
52.138	0.005188	-0.1265	-0.068054	0.007324	0.055237	-0.020599	-0.083771	0.002441	-0.00946	-0.046539	0.011902	-0.072784	0.069733	-0.10452	-0.051117	-0.045624	0.062866	-0.27741	0.33127	0.001221	0.46051	0.074921	-0.22125	-0.20187	0.20111	0.012054	0.003662	-0.001678	-0.46738	-0.022278	0.001221	-0.003357
52.139	0.010376	-0.1358	-0.076141	0.015564	0.017242	-0.06012	-0.08606	0.014954	-0.00473	0.007172	0.00885	-0.071869	0.052795	0.17548	-0.033264	0.067291	0.12116	-0.15411	-0.11383	0.024109	-0.1294	-0.014343	-0.023041	-0.3183	0.012817	0.002594	0.002289	0.006409	-0.42282	-0.019684	0.005493	-0.017242
52.14	0.007172	-0.11581	-0.060883	0.000153	0.023956	-0.027466	-0.06073	0.00351	-0.009613	0.038452	0.013885	-0.057526	0.060883	0.37643	-0.020905	-0.19119	0.13672	0.013275	-0.018005	-0.082703	-0.29633	-0.08255	-0.021057	-0.25894	0.11673	0.003967	0.012054	-0.00061	0.052185	0.009003	0.00061	-0.019989
52.141	0.007324	-0.11704	-0.055389	-0.010834	0.016632	-0.023804	-0.044098	-0.001373	-0.015106	0.030365	0.010376	-0.019989	0.047302	0.23926	-0.005646	0.010986	0.050354	0.1413	0.014191	-0.11292	-0.14297	-0.1619	-0.25818	-0.10544	0.37918	0.005951	-0.02182	0.001678	0.69794	-0.032501	0.00351	-0.015106
52.142	0.006561	-0.10681	-0.059357	0.009613	0.022278	0.075989	-0.087891	0.000763	-0.035248	0.034485	0.008392	-0.014191	0.029297	0.19745	0.007324	0.046387	-0.094604	0.17471	0.37201	-0.032196	-0.20248	0.15106	-0.32013	-0.019684	0.46417	0.003357	0.003662	0.00473	0.13031	-0.048981	-0.000916	-0.008545
52.143	0.005035	-0.10696	-0.054932	0.006256	0.022125	0.1033	-0.062408	0.004578	-0.03006	0.024567	0.013123	0.000763	0.035706	0.20386	0.027161	0.12924	-0.1297	-0.06958	1.2508	-0.057526	-0.41153	0.21973	-0.070953	0.065002	0.18417	0.003052	0.026855	0.006104	-1.1186	-0.039673	0.001526	-0.005188
52.144	0.00824	-0.11383	-0.025482	0.005646	0.017548	0.13245	-0.041962	0.010681	-0.018005	0.011597	0.004272	-0.001984	0.032959	0.14191	0.024719	0.025177	-0.08255	-0.23514	1.0222	-0.099335	-0.5603	0.06424	-0.031433	0.13855	-0.1384	-0.001831	0.046997	0.000916	-0.63187	0.026398	0.003967	-0.016327
52.145	0.002289	-0.12116	-0.005341	0.007324	-0.000458	0.16144	-0.06073	0.007324	-0.019531	0.003052	0.005188	-0.002441	0.035706	0.076447	0.027771	0.052795	-0.079651	-0.32974	0.23468	-0.055084	-0.14252	-0.074158	-0.054016	0.21225	0.39246	0.000916	0.059204	0.002899	-0.69061	0.018158	0.004883	-0.011444
52.146	0.003815	-0.17242	-0.000763	0.002747	-0.004883	0.01236	-0.1062	0.002899	-0.024719	0.036469	0.002747	0.000153	0.037384	0.084381	0.031128	0.055542	-0.047607	-0.38879	0.06073	0.098267	0.10696	-0.18707	-0.059204	0.29617	0.8876	0.007477	-0.008545	0.003967	0.21835	-0.14358	0.00473	-0.008087
52.147	0.00351	-0.13855	-0.007324	-0.001373	0.018005	-0.2681	-0.086365	0.000305	-0.027618	0.027161	0.004272	-0.025024	0.032959	0.13611	0.019836	0.001526	0.008087	-0.38498	0.32013	0.24155	0.043182	-0.31174	-0.073395	0.2594	0.85205	0.002289	-0.002289	0.006104	0.45731	-0.099487	0.009308	-0.002747
52.148	-0.000763	-0.12207	-0.028992	-0.001831	-0.006256	-0.17456	-0.077972	0.004578	-0.024567	0.029144	0.00824	0.02594	0.028381	0.17838	0.021667	-0.035248	-0.082703	-0.18707	0.37827	0.16296	0.5658	-0.24963	-0.18814	0.79697	0.33127	-0.001068	-0.11124	-0.005188	0.99411	0.094452	0.006409	-0.002899
52.149	0.009003	-0.11643	-0.045471	0.010529	-0.0177	-0.11337	-0.062866	0.004425	-0.029755	0.11292	0.003967	0.015869	0.037994	0.23773	0.024872	-0.000458	-0.12268	-0.30975	0.15503	0.030518	0.23651	-0.10605	-0.31586	0.91065	-0.38452	-0.015106	-0.11704	0.003052	1.1496	0.12573	0.003662	-0.003204
52.15	0.006561	-0.13596	-0.067902	0.003967	-0.021667	-0.12741	-0.067902	0.001068	-0.02594	0.30334	0.006714	-0.066528	0.048218	0.30655	0.021057	-0.026093	-0.092468	-0.35645	-0.060577	-0.016479	0.1236	-0.046234	-0.12848	0.8931	-1.0851	0.002136	-0.039368	-0.000458	0.83389	0.11063	0.001068	-0.002747
52.151	0.002899	-0.11673	-0.085602	0.005493	0.03479	-0.13794	-0.066071	0.008392	-0.012207	0.26642	0.006714	0.10117	0.031128	0.26306	0.003052	-0.005798	-0.080414	-0.51163	-0.19363	-0.017242	0.42877	0.008087	0.074158	0.53268	-1.3705	-0.003815	-0.013275	-0.001526	0.55756	0.058441	0.002747	-0.013123
52.152	0.012512	-0.097504	-0.088654	0.014954	0.032654	-0.041199	-0.067139	0.001678	-0.020447	-0.18158	0.003662	0.2626	-0.010834	0.17441	0.005951	0.20874	-0.041351	-0.4773	-0.14877	0.062103	0.28473	0.034637	0.098572	0.18585	-1.2923	-0.010071	-0.02533	0.014191	0.37079	0.024109	0.005646	-0.016479
52.153	0.002289	-0.1387	-0.079651	0.014191	-0.012512	0.10101	-0.059814	0.003967	-0.025787	-0.12695	0.011749	-0.054321	-0.039063	0.08728	0.01358	-0.32791	-0.003815	-0.39536	0.24429	0.045013	0.064697	0.040283	0.14282	-0.18158	-1.1516	0.001373	-0.088959	-0.000305	0.23636	-0.057373	0.003357	-0.013275
52.154	-0.002136	-0.12787	-0.073242	0.008087	-0.034637	0.079346	-0.050659	0.003815	-0.024414	-0.041504	0.001526	-0.093231	0.026398	-0.019836	0.024109	-0.038147	0.014954	-0.47318	0.31494	-0.002899	0.032654	-0.001373	0.19638	-0.43518	-0.95947	0.002747	-0.11765	0.002441	0.15915	-0.053558	0.003662	0.003357
52.155	0.003815	-0.054779	-0.089874	0.001068	-0.040894	0.025482	-0.079346	0.00061	-0.015564	0.001373	0.00412	-0.07431	0.06485	-0.1767	0.016022	0.17288	0.025635	-0.45685	0.40054	-0.044403	0.39307	-0.032806	0.093536	-0.54947	-0.52734	-0.003204	-0.029755	0.007019	-0.23209	0.010834	0.007324	-0.00824
52.156	-0.001373	-0.066376	-0.10376	0.007477	-0.05188	-0.022888	-0.087433	0.004883	-0.00946	0.041046	0.018311	-0.078888	0.067902	-0.24262	0.005646	0.083466	0.070038	-0.38193	0.26016	-0.020905	0.52978	0.015259	-0.081177	-0.65765	-0.18936	-0.000763	-0.006104	0.005341	-0.11551	0.010681	0.005951	-0.003967
52.157	-0.006866	-0.065002	-0.12573	0.02594	-0.045166	-0.10483	-0.097198	-0.013275	-0.00946	0.050049	0.03891	-0.045471	0.046692	-0.25559	-0.000763	0.036926	0.11185	-0.20935	-0.1062	-0.022736	0.5336	0.0914	-0.016327	-0.59357	0.13565	-0.008392	0.008392	0.000153	0.005188	0.028076	0.009003	-0.01297
52.158	-0.007935	-0.078583	-0.15945	0.029297	-0.039978	-0.21103	-0.094147	0.00473	-0.016327	0.053864	0.044098	-0.013885	0.044098	-0.18173	-0.018616	0.013428	0.14557	-0.18662	-0.25559	-0.019684	0.15793	0.10239	0.17029	-0.57251	0.15091	0.000763	0.035706	-0.00412	0.027924	0.046082	0.005188	-0.020905
52.159	0.044403	-0.057678	-0.1889	0.00885	-0.02594	-0.22522	-0.09201	0.010376	-0.02594	0.082397	0.024414	0.003204	0.028229	-0.063782	0.002441	-0.015259	0.13855	-0.055084	-0.49911	-0.026093	-0.15625	-0.045319	0.39749	-0.6572	0.12604	-0.003357	0.010834	-0.001526	0.042725	0.032196	0.007935	-0.016327
52.16	0.034027	-0.081024	-0.1651	0.008392	0.001526	-0.2153	-0.071259	0.001526	-0.030823	-0.036621	-0.00824	0.00473	0.024414	-0.03479	0.019073	-0.018463	0.13397	-0.000458	-0.65689	-0.094757	-0.20203	-0.23514	0.55924	-0.72586	0.049438	-0.02121	0.000458	0	0.026398	-0.008698	0.005188	-0.020447
52.161	0.035095	-0.05661	-0.18372	0.014801	-0.005951	0.01358	-0.067139	0.008698	-0.043488	-0.177	-0.000305	0.002899	0.02121	-0.083923	0.018768	-0.006409	0.081177	0.068512	-0.64117	-0.1152	0.42313	-0.36484	0.19257	-0.51498	0.063171	-0.002289	-0.008392	-0.004272	0.000763	0.006714	0.001984	-0.010376
52.162	-0.014648	-0.070343	-0.19989	0.008545	0.029602	0.12802	-0.050964	0.013733	-0.044098	-0.11536	0.005035	0.010376	0.003052	0.103	0.009918	0.008087	-0.042114	0.056915	0.35919	-0.1413	1.0352	-0.16449	-0.77087	0.018463	0.73624	-0.00473	0.011139	0.001678	0.01236	-0.010834	0.00351	-0.025482
52.163	0.001526	-0.045929	-0.2182	0.010986	0.023346	0.1471	-0.021667	0.006104	-0.023804	-0.065002	-0.003052	0.00946	0.017242	0.29404	0.011902	-0.001831	-0.17822	0.14954	0.91568	-0.096893	0.8345	-0.016327	-1.1018	0.18036	0.88501	-0.007477	0.007172	0.001984	0.008087	-0.012817	0.003967	-0.013733
52.164	-0.005035	-0.060272	-0.27084	0.01358	0.004425	0.16815	-0.016785	0.002594	-0.031281	-0.046234	0.007629	-0.001221	0.036621	0.20554	-0.011902	-0.023956	-0.24323	-0.00473	0.48477	0.039673	0.47775	0.018921	-0.77972	0.41428	0.80139	-0.008545	0.023804	-0.003204	-0.016937	-0.030518	0.002747	-0.011597
52.165	-0.006561	-0.050964	-0.30365	0.014038	0.009155	0.21881	-0.043488	0.005341	-0.048523	-0.026855	0.001678	0.006866	0.05127	0.020905	0.007019	-0.007324	-0.16449	-0.02533	-0.12451	0.065613	0.18555	-0.15945	-0.27435	0.68436	0.38757	-0.005341	0.013428	-0.001373	-0.016174	-0.000763	0.001221	-0.01709
52.166	-0.006866	-0.018311	-0.33341	0.007782	-0.000916	0.19394	-0.076447	0.003815	-0.036469	0.031128	0.010071	-0.002747	0.036621	-0.088196	0.00885	-0.048676	-0.10056	0.13473	-0.54596	0.1683	0.039673	-0.11902	-0.012512	0.57632	-0.05661	-0.011444	0.009918	-0.003052	0.020599	-0.017548	-0.000153	-0.013275
52.167	-0.017242	0.018311	-0.35446	-0.003204	0.019073	0.11124	-0.066681	0.005341	-0.04364	0.036621	0.006866	0.002441	0.027008	0.13489	0.004578	-0.013885	-0.039673	0.2623	-1.1765	0.20859	0.028839	0.076294	0.075226	0.48584	-0.25146	0.001373	0.013428	-0.005798	0.021515	-0.01297	0.002136	-0.01358
